<svg width="512" height="512" viewBox="0 0 512 512" fill="none" xmlns="http://www.w3.org/2000/svg">
<rect width="512" height="512" fill="black"/>
<g clip-path="url(#clip0_1302_356)">
<path d="M393.589 185.986V173.989C388.303 173.926 383.035 173.359 377.856 172.298C369.069 170.41 360.682 166.995 353.076 162.209C352.61 161.633 352.068 161.123 351.463 160.695C341.189 154.244 332.878 145.102 327.43 134.263C323.794 127.392 321.146 120.043 319.564 112.433H319.269C318.431 107.892 318.03 103.283 318.069 98.666H263.73C263.73 124.842 263.828 151.019 263.612 177.195V314.252C263.506 321.851 261.495 329.303 257.764 335.923C254.033 342.544 248.7 348.123 242.254 352.15C235.528 356.39 227.798 358.771 219.852 359.05C211.906 359.33 204.028 357.499 197.021 353.743C191.857 350.75 187.208 346.945 183.254 342.474C177.518 335.919 173.905 327.78 172.89 319.129C171.898 310.226 173.518 301.227 177.551 293.228C179.976 288.539 183.32 284.385 187.384 281.015C194.096 275.581 201.991 271.802 210.433 269.982C217.489 268.155 224.919 268.38 231.85 270.631V243.629C231.85 238.358 232.008 233.068 231.732 227.896C231.555 223.667 231.732 219.439 231.732 215.211C208.877 212.021 185.624 216.889 165.967 228.977C152.497 237.239 141.169 248.567 132.907 262.037C119.75 283.539 115.273 309.244 120.387 333.927C125.501 358.611 139.823 380.421 160.441 394.925L161.168 395.554C171.992 403.12 184.234 408.418 197.158 411.13C206.322 413.009 215.68 413.762 225.026 413.372C243.569 412.909 261.533 406.818 276.533 395.908C287.948 387.449 297.484 376.714 304.538 364.382C312.858 350.25 317.83 334.4 319.072 318.048C319.406 313.603 319.21 309.158 319.19 304.714C318.941 271.333 318.83 237.952 318.856 204.571C340.718 219.978 366.844 228.173 393.589 228.014V185.986Z" fill="white"/>
</g>
<defs>
<clipPath id="clip0_1302_356">
<rect width="354" height="354" fill="white" transform="translate(79 79)"/>
</clipPath>
</defs>
</svg>
